<?xml version="1.0" encoding="UTF-8"?>
<!DOCTYPE svg PUBLIC "-//W3C//DTD SVG 1.1//EN" "http://www.w3.org/Graphics/SVG/1.1/DTD/svg11.dtd">
<!-- Creator: CorelDRAW 2020 (64-Bit) -->
<svg xmlns="http://www.w3.org/2000/svg" xml:space="preserve" width="100px" height="100px" version="1.1" style="shape-rendering:geometricPrecision; text-rendering:geometricPrecision; image-rendering:optimizeQuality; fill-rule:evenodd; clip-rule:evenodd"
viewBox="0 0 100 100"
 xmlns:xlink="http://www.w3.org/1999/xlink"
 xmlns:xodm="http://www.corel.com/coreldraw/odm/2003">
 <defs>
  <style type="text/css">
   <![CDATA[
    .str0 {stroke:white;stroke-width:1.2;stroke-linejoin:round;stroke-miterlimit:22.9256}
    .fil0 {fill:#6666FF}
   ]]>
  </style>
 </defs>
 <g id="Слой_x0020_1">
  <metadata id="CorelCorpID_0Corel-Layer"/>
  <path class="fil0 str0" d="M45 23l0 4c0,1.653 -1.349,3 -3.001,3 -21.059,0 -12.939,0 -33.998,0 -1.653,0 -3.001,-1.347 -3.001,-3l0 -4c0,-1.653 1.348,-3.001 3.001,-3 21.058,0 12.94,0 33.998,0 1.652,-0.001 3.001,1.347 3.001,3z"/>
  <path class="fil0 str0" d="M45 73l0 4c0,1.653 -1.349,3 -3.001,3 -21.059,0 -12.939,0 -33.998,0 -1.653,0 -3.001,-1.347 -3.001,-3l0 -4c0,-1.653 1.348,-3.001 3.001,-3 21.058,0 12.94,0 33.998,0 1.652,-0.001 3.001,1.347 3.001,3z"/>
  <path class="fil0 str0" d="M97.5 46.749l0 6.501c0,1.652 -1.349,3 -3.001,2.999 -27.521,0 -16.477,0 -43.998,0 -1.652,0.001 -3,-1.347 -3,-2.999l0 -6.501c0,-1.653 1.348,-3 3,-2.999 27.52,0 16.478,0 43.998,0 1.652,-0.001 3.001,1.346 3.001,2.999z"/>
 </g>
</svg>
