<?xml version="1.0" encoding="UTF-8"?>
<!DOCTYPE svg PUBLIC "-//W3C//DTD SVG 1.1//EN" "http://www.w3.org/Graphics/SVG/1.1/DTD/svg11.dtd">
<!-- Creator: CorelDRAW 2020 (64-Bit) -->
<svg xmlns="http://www.w3.org/2000/svg" xml:space="preserve" width="100px" height="100px" version="1.1" style="shape-rendering:geometricPrecision; text-rendering:geometricPrecision; image-rendering:optimizeQuality; fill-rule:evenodd; clip-rule:evenodd"
viewBox="0 0 100 100"
 xmlns:xlink="http://www.w3.org/1999/xlink"
 xmlns:xodm="http://www.corel.com/coreldraw/odm/2003">
 <defs>
  <style type="text/css">
   <![CDATA[
    .str0 {stroke:white;stroke-width:1.2;stroke-linejoin:round;stroke-miterlimit:22.9256}
    .fil0 {fill:#339966}
   ]]>
  </style>
 </defs>
 <g id="Слой_x0020_1">
  <metadata id="CorelCorpID_0Corel-Layer"/>
  <polygon class="fil0 str0" points="20,20 20,5 30,5 30,20 45,20 45,30 30,30 30,45 20,45 20,30 5,30 5,20 "/>
  <polygon class="fil0 str0" points="20,70 20,55 30,55 30,70 45,70 45,80 30,80 30,95 20,95 20,80 5,80 5,70 "/>
  <polygon class="fil0 str0" points="66.25,43.75 66.25,25 78.75,25 78.75,43.75 97.5,43.75 97.5,56.249 78.75,56.249 78.75,74.999 66.25,74.999 66.25,56.249 47.501,56.249 47.501,43.75 "/>
 </g>
</svg>
