<svg version="1.1" xmlns="http://www.w3.org/2000/svg" xmlns:xlink="http://www.w3.org/1999/xlink" viewBox="436 240 40 48" id="Icon_Clipboard_3_">
	<g>
		<path fill-rule="evenodd" clip-rule="evenodd" d="M461.6,244c-0.8-2.3-3-4-5.6-4c-2.6,0-4.8,1.7-5.6,4H436v44h40v-44H461.6z
			 M456,244c1.1,0,2,0.9,2,2c0,1.1-0.9,2-2,2c-1.1,0-2-0.9-2-2C454,244.9,454.9,244,456,244z M472,284h-32v-36h6v2c0,1.1,0.9,2,2,2
			h16c1.1,0,2-0.9,2-2v-2h6V284z M466,264h-20c-1.1,0-2,0.9-2,2c0,1.1,0.9,2,2,2h20c1.1,0,2-0.9,2-2C468,264.9,467.1,264,466,264z
			 M446,256c-1.1,0-2,0.9-2,2c0,1.1,0.9,2,2,2h20c1.1,0,2-0.9,2-2c0-1.1-0.9-2-2-2H446z"/>
	</g></svg>