<?xml version="1.0" encoding="UTF-8" standalone="no"?>
<svg xmlns:dc="http://purl.org/dc/elements/1.1/"
  xmlns:cc="http://creativecommons.org/ns#"
  xmlns:rdf="http://www.w3.org/1999/02/22-rdf-syntax-ns#"
  xmlns:svg="http://www.w3.org/2000/svg"
  xmlns="http://www.w3.org/2000/svg"
  xmlns:sodipodi="http://sodipodi.sourceforge.net/DTD/sodipodi-0.dtd"
  xmlns:inkscape="http://www.inkscape.org/namespaces/inkscape"
  xml:space="preserve"
  version="1.1"
  style="clip-rule:evenodd;fill-rule:evenodd;image-rendering:optimizeQuality;shape-rendering:geometricPrecision;text-rendering:geometricPrecision"
  viewBox="0 0 1803.71 2238.3689">
  <g id="trash" transform="translate(445.26,672.78775)">
    <path d="m 21.29,-325.53 c -16.76,1.4 -33.96,6.67 -52.39,10.1 -54.82,10.2 -248.16,43.67 -279.5,53.75 -42.21,13.58 -55.51,46.54 -55.51,90.28 -27.08,0.6 -53.35,11.92 -79.15,12.5 0,26.47 7.98,55.87 11.9,79.75 4.21,25.7 13.09,56.68 13.09,82.71 25.85,0 36.26,-3.87 55.29,-7.2 l 612.97,-107.68 c 289.42,-54.73 604.65,-101.38 888.61,-156.96 33.18,-6.5 208.16,-34.01 221.85,-40.58 0,-18.67 -24.13,-151.99 -29.16,-162.46 -25.48,2.12 -50.59,12.5 -79.14,12.5 -9.4,-40.33 -50.8,-66.66 -83.32,-66.66 l -284.4,48.85 c -97.43,16.9 -6,-1.13 -103.52,-123.31 -33.62,-42.12 -70.04,-61.84 -127.91,-72.09 -56.18,-9.94 -377.26,53.92 -475.91,75.41 -59.3,12.92 -100.67,42.85 -131.33,93.62 -25.58,42.34 -39.88,141.18 -22.47,177.47 z" id="path9" fill="#000000"/>
    <path d="m 112.93,1565.66 h 724.82 c 59.66,0 124.22,-50.39 152.96,-84.48 49.66,-58.89 51.38,-104.8 61.89,-179.71 L 1195.64,124.01 c 3.7,-32.01 12.85,-77.97 12.85,-107.95 h -1466.3 c 0,29.37 9.09,73.65 12.5,104.13 27.64,246.93 64.08,505.08 90.91,750.55 6.37,58.37 55.2,490.26 68.71,531.14 24.37,73.7 113.44,163.78 198.62,163.78 z" id="path7"  fill="#000000" fill-opacity="0.6"/>
  </g>
</svg>
